# ProBuilder 5.2.4
# https://unity3d.com/unity/features/worldbuilding/probuilder
# 3/27/2025 11:20:03 PM

mtllib ./SightCone.mtl
o SightCone

g Cone
v -1 -1.125 0
v -0.5 -1.125 0.8660254
v 0 1.125 0
v 0 -1.125 0
v 0.5000001 -1.125 0.8660254
v 1 -1.125 -8.742278E-08
v 0.4999999 -1.125 -0.8660254
v -0.4999999 -1.125 -0.8660254

vt 0 1.192093E-07
vt 2 0
vt 1 2.839454
vt -1 0
vt -0.5 0.8660254
vt 0.5000001 0.8660254
vt 1 -8.742278E-08
vt 0.4999999 -0.8660254
vt -0.4999999 -0.8660254

vn -0.9138116 0.4061385 -5.054362E-08
vn -0.4569057 0.4061385 0.791384
vn 8.296615E-08 1 -1.7976E-07
vn 0 -1 0
vn 0.4569058 0.4061385 0.791384
vn 0.9138116 0.4061385 -1.010872E-07
vn 0.4569057 0.4061384 -0.791384
vn -0.4569058 0.4061385 -0.791384

usemtl Trigger
f 1/1/1 2/2/2 3/3/3
f 4/1/4 2/5/4 1/4/4
f 2/1/2 5/2/5 3/3/3
f 4/1/4 5/6/4 2/5/4
f 5/1/5 6/2/6 3/3/3
f 4/1/4 6/7/4 5/6/4
f 6/1/6 7/2/7 3/3/3
f 4/1/4 7/8/4 6/7/4
f 7/1/7 8/2/8 3/3/3
f 4/1/4 8/9/4 7/8/4
f 8/1/8 1/2/1 3/3/3
f 4/1/4 1/4/4 8/9/4

