# 3ds Max Wavefront OBJ Exporter v0.99 - (c)2007 guruware
# File Created: 26.04.2025 22:30:16

mtllib Conductor wand.mtl

#
# object wand
#

v  5.35859632 101.91925049 13.36948490
v  5.49166918 101.84328461 13.36948490
v  5.47384071 101.84328461 13.30294800
v  5.42513275 101.84328461 13.25424004
v  5.35859632 101.84328461 13.23641205
v  5.29205990 101.84328461 13.25424004
v  5.24335194 101.84328461 13.30294800
v  5.22552347 101.84328461 13.36948490
v  5.24335194 101.84328461 13.43602180
v  5.29205990 101.84328461 13.48472977
v  5.35859632 101.84328461 13.50255775
v  5.42513275 101.84328461 13.48472977
v  5.47384071 101.84328461 13.43602180
v  5.73176241 96.03879547 13.15403748
v  5.66490030 98.77127838 13.19264030
v  5.71228552 98.77127838 13.36948490
v  5.78949118 96.03879547 13.36948490
v  5.57404375 96.03879547 12.99631882
v  5.53544092 98.77127838 13.06318092
v  5.35859632 96.03879547 12.93859005
v  5.35859632 98.77127838 13.01579571
v  5.14314890 96.03879547 12.99631882
v  5.18175173 98.77127838 13.06318092
v  4.98543024 96.03879547 13.15403748
v  5.05229235 98.77127838 13.19264030
v  4.92770147 96.03879547 13.36948490
v  5.00490713 98.77127838 13.36948490
v  4.98543024 96.03879547 13.58493233
v  5.05229235 98.77127838 13.54632950
v  5.14314890 96.03879547 13.74265099
v  5.18175173 98.77127838 13.67578888
v  5.35859632 96.03879547 13.80037975
v  5.35859632 98.77127838 13.72317410
v  5.57404375 96.03879547 13.74265099
v  5.53544092 98.77127838 13.67578888
v  5.73176193 96.03879547 13.58493233
v  5.66490030 98.77127838 13.54632950
v  6.88859701 35.09339142 12.48613834
v  6.18365049 37.79125977 12.89313984
v  6.31128645 37.79125977 13.36948490
v  7.12528944 35.09339142 13.36948490
v  6.24194241 35.09339142 11.83948326
v  5.83494139 37.79125977 12.54443073
v  5.35859632 35.09339142 11.60279179
v  5.35859632 37.79125977 12.41679478
v  4.47524977 35.09339142 11.83948421
v  4.88225126 37.79125977 12.54443073
v  3.82859516 35.09339142 12.48613834
v  4.53354216 37.79125977 12.89313984
v  3.59190321 35.09339142 13.36948490
v  4.40590620 37.79125977 13.36948490
v  3.82859516 35.09339142 14.25283146
v  4.53354216 37.79125977 13.84582996
v  4.47524929 35.09339142 14.89948559
v  4.88225079 37.79125977 14.19453907
v  5.35859537 35.09339142 15.13617802
v  5.35859585 37.79125977 14.32217503
v  6.24194193 35.09339142 14.89948654
v  5.83494091 37.79125977 14.19453907
v  6.88859701 35.09339142 14.25283241
v  6.18365002 37.79125977 13.84583092
v  7.33781815 31.65956497 12.22678089
v  7.64400482 31.65956497 13.36948490
v  6.50130033 31.65956497 11.39026260
v  5.35859632 31.65956497 11.08407688
v  4.21589231 31.65956497 11.39026260
v  3.37937450 31.65956497 12.22678089
v  3.07318807 31.65956497 13.36948490
v  3.37937427 31.65956497 14.51218891
v  4.21589136 31.65956497 15.34870625
v  5.35859537 31.65956497 15.65489292
v  6.50129938 31.65956497 15.34870720
v  7.33781767 31.65956497 14.51219082
v  7.51139927 27.29356003 12.12656403
v  7.84443903 27.29356003 13.36948490
v  6.60151768 27.29356003 11.21668148
v  5.35859632 27.29356003 10.88364220
v  4.11567497 27.29356003 11.21668243
v  3.20579362 27.29356003 12.12656307
v  2.87275362 27.29356003 13.36948490
v  3.20579314 27.29356003 14.61240578
v  4.11567450 27.29356003 15.52228737
v  5.35859537 27.29356003 15.85532761
v  6.60151672 27.29356003 15.52228832
v  7.51139832 27.29356003 14.61240768
v  7.52265644 23.89505959 12.12006474
v  7.85743761 23.89505959 13.36948490
v  6.60801697 23.89505959 11.20542526
v  5.35859632 23.89505959 10.87064362
v  4.10917568 23.89505959 11.20542526
v  3.19453692 23.89505959 12.12006378
v  2.85975552 23.89505959 13.36948490
v  3.19453645 23.89505959 14.61890507
v  4.10917521 23.89505959 15.53354454
v  5.35859537 23.89505959 15.86832619
v  6.60801554 23.89505959 15.53354549
v  7.52265549 23.89505959 14.61890697
v  7.23954153 21.23457146 12.28352070
v  7.53052521 21.23457146 13.36948490
v  6.44456053 21.23457146 11.48853970
v  5.35859632 21.23457146 11.19755650
v  4.27263165 21.23457146 11.48853970
v  3.47765112 21.23457146 12.28352070
v  3.18666768 21.23457146 13.36948490
v  3.47765064 21.23457146 14.45544910
v  4.27263117 21.23457146 15.25043011
v  5.35859537 21.23457146 15.54141331
v  6.44455957 21.23457146 15.25043106
v  7.23954105 21.23457146 14.45545006
v  6.29053116 19.65437508 12.83143234
v  6.43470192 19.65437508 13.36948490
v  5.89664936 19.65437508 12.43754959
v  5.35859632 19.65437508 12.29337883
v  4.82054329 19.65437508 12.43754959
v  4.42666149 19.65437508 12.83143234
v  4.28249073 19.65437508 13.36948490
v  4.42666101 19.65437508 13.90753746
v  4.82054329 19.65437508 14.30141926
v  5.35859585 19.65437508 14.44559097
v  5.89664888 19.65437508 14.30142021
v  6.29053116 19.65437508 13.90753841
v  5.35859632 19.20359612 13.36948490
v  5.95118999 76.23686981 13.02735043
v  6.04286480 76.23686981 13.36948490
v  5.70073032 76.23686981 12.77689075
v  5.35859632 76.23686981 12.68521690
v  5.01646233 76.23686981 12.77689171
v  4.76600266 76.23686981 13.02735043
v  4.67432785 76.23686981 13.36948490
v  4.76600266 76.23686981 13.71161842
v  5.01646185 76.23686981 13.96207809
v  5.35859585 76.23686981 14.05375290
v  5.70073032 76.23686981 13.96207905
v  5.95118999 76.23686981 13.71161938
# 134 vertices

vn 0.00000001 0.99999994 0.00000000
vn 0.23805031 0.97125274 0.00000001
vn 0.20615762 0.97125274 -0.11902519
vn 0.11902516 0.97125274 -0.20615764
vn 0.00000001 0.97125274 -0.23805031
vn -0.11902516 0.97125274 -0.20615761
vn -0.20615759 0.97125274 -0.11902518
vn -0.23805031 0.97125274 -0.00000006
vn -0.20615762 0.97125274 0.11902510
vn -0.11902522 0.97125274 0.20615757
vn -0.00000009 0.97125274 0.23805031
vn 0.11902504 0.97125274 0.20615771
vn 0.20615754 0.97125274 0.11902528
vn 0.86415601 0.06566916 -0.49892074
vn 0.86415601 0.06566916 -0.49892080
vn 0.99784148 0.06566915 -0.00000001
vn 0.99784148 0.06566916 -0.00000002
vn 0.49892071 0.06566916 -0.86415607
vn -0.00000012 0.06566916 -0.99784148
vn -0.00000005 0.06566916 -0.99784148
vn -0.49892080 0.06566915 -0.86415601
vn -0.49892077 0.06566915 -0.86415601
vn -0.86415601 0.06566915 -0.49892080
vn -0.86415601 0.06566915 -0.49892077
vn -0.99784148 0.06566916 -0.00000021
vn -0.99784148 0.06566916 -0.00000016
vn -0.86415619 0.06566917 0.49892050
vn -0.49892104 0.06566917 0.86415589
vn -0.49892095 0.06566916 0.86415589
vn -0.00000042 0.06566917 0.99784148
vn -0.00000043 0.06566916 0.99784148
vn 0.49892011 0.06566916 0.86415637
vn 0.49892017 0.06566916 0.86415637
vn 0.86415577 0.06566917 0.49892116
vn 0.86415577 0.06566916 0.49892119
vn 0.77391052 0.44879457 -0.44681755
vn 0.70855194 0.57498306 -0.40908259
vn 0.81816524 0.57498306 0.00000002
vn 0.89363497 0.44879451 0.00000006
vn 0.44681746 0.44879460 -0.77391058
vn 0.40908262 0.57498312 -0.70855188
vn -0.00000005 0.44879451 -0.89363497
vn -0.00000006 0.57498312 -0.81816524
vn -0.44681758 0.44879454 -0.77391052
vn -0.40908259 0.57498312 -0.70855188
vn -0.77391058 0.44879445 -0.44681752
vn -0.70855188 0.57498312 -0.40908265
vn -0.89363497 0.44879448 -0.00000015
vn -0.81816518 0.57498318 -0.00000008
vn -0.77391064 0.44879457 0.44681731
vn -0.70855200 0.57498312 0.40908244
vn -0.44681785 0.44879454 0.77391034
vn -0.40908289 0.57498318 0.70855170
vn -0.00000047 0.44879442 0.89363503
vn -0.00000033 0.57498312 0.81816524
vn 0.44681701 0.44879454 0.77391082
vn 0.40908211 0.57498306 0.70855224
vn 0.77391034 0.44879454 0.44681790
vn 0.70855165 0.57498312 0.40908295
vn 0.81693256 0.33190602 -0.47165617
vn 0.94331253 0.33190587 0.00000016
vn 0.47165608 0.33190602 -0.81693262
vn -0.00000004 0.33190584 -0.94331253
vn -0.47165620 0.33190587 -0.81693262
vn -0.81693262 0.33190584 -0.47165623
vn -0.94331253 0.33190578 -0.00000021
vn -0.81693268 0.33190593 0.47165605
vn -0.47165638 0.33190602 0.81693244
vn -0.00000051 0.33190587 0.94331253
vn 0.47165570 0.33190599 0.81693286
vn 0.81693232 0.33190602 0.47165662
vn 0.86111653 0.10632301 -0.49716571
vn 0.86111659 0.10632296 -0.49716562
vn 0.99433166 0.10632306 0.00000004
vn 0.99433166 0.10632308 0.00000004
vn 0.49716580 0.10632303 -0.86111647
vn 0.49716568 0.10632312 -0.86111653
vn -0.00000021 0.10632312 -0.99433166
vn -0.00000019 0.10632311 -0.99433166
vn -0.49716580 0.10632305 -0.86111647
vn -0.49716577 0.10632298 -0.86111653
vn -0.86111641 0.10632302 -0.49716595
vn -0.86111641 0.10632309 -0.49716586
vn -0.99433166 0.10632312 -0.00000014
vn -0.99433166 0.10632312 -0.00000010
vn -0.86111659 0.10632303 0.49716559
vn -0.86111659 0.10632300 0.49716559
vn -0.49716613 0.10632298 0.86111629
vn -0.49716601 0.10632306 0.86111635
vn -0.00000040 0.10632311 0.99433166
vn -0.00000038 0.10632311 0.99433166
vn 0.49716532 0.10632308 0.86111671
vn 0.49716526 0.10632299 0.86111677
vn 0.86111617 0.10632294 0.49716631
vn 0.86111623 0.10632300 0.49716619
vn 0.85850847 -0.13146913 -0.49566019
vn 0.86599100 0.00890834 -0.49998021
vn 0.99996030 0.00890841 0.00000013
vn 0.99132025 -0.13146918 0.00000008
vn 0.49566013 -0.13146922 -0.85850853
vn 0.49998018 0.00890817 -0.86599106
vn -0.00000008 -0.13146919 -0.99132025
vn -0.00000021 0.00890826 -0.99996030
vn -0.49566019 -0.13146910 -0.85850853
vn -0.49998024 0.00890823 -0.86599100
vn -0.85850853 -0.13146910 -0.49566019
vn -0.86599100 0.00890812 -0.49998027
vn -0.99132025 -0.13146918 -0.00000018
vn -0.99996030 0.00890809 -0.00000018
vn -0.85850865 -0.13146918 0.49565992
vn -0.86599118 0.00890817 0.49997994
vn -0.49566048 -0.13146915 0.85850835
vn -0.49998045 0.00890829 0.86599088
vn -0.00000039 -0.13146916 0.99132025
vn -0.00000042 0.00890823 0.99996030
vn 0.49565956 -0.13146918 0.85850888
vn 0.49997967 0.00890828 0.86599129
vn 0.85850829 -0.13146913 0.49566054
vn 0.86599082 0.00890850 0.49998057
vn 0.70784694 -0.57613963 -0.40867561
vn 0.81735122 -0.57613969 0.00000004
vn 0.40867555 -0.57613963 -0.70784700
vn -0.00000008 -0.57613957 -0.81735128
vn -0.40867570 -0.57613957 -0.70784694
vn -0.70784694 -0.57613957 -0.40867567
vn -0.81735134 -0.57613951 -0.00000017
vn -0.70784712 -0.57613957 0.40867543
vn -0.40867588 -0.57613963 0.70784676
vn -0.00000038 -0.57613969 0.81735122
vn 0.40867519 -0.57613957 0.70784724
vn 0.70784676 -0.57613963 0.40867594
vn 0.33303434 -0.92310202 -0.19227745
vn 0.38455498 -0.92310202 0.00000002
vn 0.19227748 -0.92310202 -0.33303437
vn -0.00000007 -0.92310202 -0.38455498
vn -0.19227748 -0.92310202 -0.33303437
vn -0.33303428 -0.92310208 -0.19227749
vn -0.38455495 -0.92310202 -0.00000008
vn -0.33303440 -0.92310202 0.19227740
vn -0.19227760 -0.92310208 0.33303422
vn -0.00000017 -0.92310202 0.38455495
vn 0.19227730 -0.92310208 0.33303443
vn 0.33303428 -0.92310202 0.19227764
vn -0.00000001 -0.99999994 -0.00000000
vn 0.99986780 0.01626008 0.00000006
vn 0.86591095 0.01626007 -0.49993387
vn 0.86579633 0.02299991 -0.49986774
vn 0.99973547 0.02299991 -0.00000002
vn 0.49993384 0.01626007 -0.86591095
vn 0.49986777 0.02299991 -0.86579627
vn -0.00000007 0.01626008 -0.99986780
vn -0.00000018 0.02299991 -0.99973547
vn -0.49993390 0.01626008 -0.86591095
vn -0.49986777 0.02299991 -0.86579633
vn -0.86591089 0.01626008 -0.49993390
vn -0.86579627 0.02299991 -0.49986783
vn -0.99986780 0.01626007 -0.00000013
vn -0.99973547 0.02299991 -0.00000018
vn -0.86591101 0.01626008 0.49993375
vn -0.86579639 0.02299991 0.49986756
vn -0.49993414 0.01626007 0.86591077
vn -0.49986812 0.02299991 0.86579609
vn -0.00000053 0.01626007 0.99986780
vn -0.00000053 0.02299991 0.99973547
vn 0.49993336 0.01626008 0.86591125
vn 0.49986717 0.02299991 0.86579663
vn 0.86591071 0.01626008 0.49993426
vn 0.86579603 0.02299991 0.49986818
vn 0.86564106 0.02978993 -0.49977812
vn 0.99955618 0.02978993 -0.00000002
vn 0.49977812 0.02978994 -0.86564100
vn -0.00000013 0.02978994 -0.99955618
vn -0.49977815 0.02978993 -0.86564100
vn -0.86564100 0.02978993 -0.49977815
vn -0.99955618 0.02978993 -0.00000020
vn -0.86564118 0.02978993 0.49977788
vn -0.49977836 0.02978993 0.86564088
vn -0.00000041 0.02978993 0.99955618
vn 0.49977750 0.02978993 0.86564136
vn 0.86564076 0.02978994 0.49977854
vn 0.98629689 0.16498020 -0.00000000
vn 0.85415816 0.16498020 -0.49314845
vn 0.85415804 0.16498020 -0.49314862
vn 0.98629689 0.16498020 0.00000002
vn 0.49314836 0.16498019 -0.85415822
vn 0.49314845 0.16498020 -0.85415816
vn -0.00000008 0.16498019 -0.98629689
vn 0.00000002 0.16498022 -0.98629689
vn -0.49314848 0.16498019 -0.85415810
vn -0.49314851 0.16498022 -0.85415810
vn -0.85415816 0.16498019 -0.49314845
vn -0.85415810 0.16498020 -0.49314854
vn -0.98629689 0.16498019 -0.00000013
vn -0.98629689 0.16498022 -0.00000020
vn -0.85415828 0.16498019 0.49314824
vn -0.49314871 0.16498019 0.85415798
vn -0.49314871 0.16498020 0.85415798
vn -0.00000043 0.16498020 0.98629689
vn -0.00000031 0.16498022 0.98629689
vn 0.49314785 0.16498019 0.85415846
vn 0.49314791 0.16498019 0.85415846
vn 0.85415787 0.16498023 0.49314886
vn 0.85415781 0.16498023 0.49314901
# 203 vertex normals

vt 0.00475500 0.37828377 0.00000000
vt 0.01054845 0.37863520 0.00000000
vt 0.01061479 0.38070765 0.00000000
vt 0.01030361 0.38282341 0.00000000
vt 0.00959746 0.38494009 0.00000000
vt 0.00847736 0.38700652 0.00000000
vt 0.00692709 0.38896006 0.00000000
vt 0.00100000 0.36817351 0.00000000
vt 0.00321900 0.36900380 0.00000000
vt 0.00518896 0.37010962 0.00000000
vt 0.00688343 0.37146056 0.00000000
vt 0.00828191 0.37302205 0.00000000
vt 0.00936984 0.37475899 0.00000000
vt 0.01012789 0.37664172 0.00000000
vt 0.09772594 0.36869603 0.00000000
vt 0.05709576 0.37707701 0.00000000
vt 0.05598906 0.37055236 0.00000000
vt 0.09582347 0.36073563 0.00000000
vt 0.09940531 0.37670586 0.00000000
vt 0.05772546 0.38365561 0.00000000
vt 0.10087232 0.38475505 0.00000000
vt 0.05787783 0.39025378 0.00000000
vt 0.10214459 0.39283314 0.00000000
vt 0.05755204 0.39683822 0.00000000
vt 0.10324802 0.40093023 0.00000000
vt 0.05674514 0.40337655 0.00000000
vt 0.07988238 0.31443432 0.00000000
vt 0.03975412 0.33440670 0.00000000
vt 0.03556140 0.32915676 0.00000000
vt 0.07662291 0.30697599 0.00000000
vt 0.08301280 0.32195979 0.00000000
vt 0.04354229 0.33992141 0.00000000
vt 0.08598127 0.32956111 0.00000000
vt 0.04691655 0.34567627 0.00000000
vt 0.08876247 0.33724171 0.00000000
vt 0.04986257 0.35164610 0.00000000
vt 0.09133745 0.34500089 0.00000000
vt 0.05236445 0.35780337 0.00000000
vt 0.09369347 0.35283443 0.00000000
vt 0.05441000 0.36411634 0.00000000
vt 0.74196279 0.53929263 0.00000000
vt 0.73063493 0.58958322 0.00000000
vt 0.70822942 0.58873844 0.00000000
vt 0.71121287 0.53748238 0.00000000
vt 0.77214777 0.54534304 0.00000000
vt 0.75200927 0.59331572 0.00000000
vt 0.80108798 0.55609745 0.00000000
vt 0.77154899 0.60013366 0.00000000
vt 0.82772696 0.57225066 0.00000000
vt 0.78811848 0.61027646 0.00000000
vt 0.85030711 0.59480155 0.00000000
vt 0.80000985 0.62394357 0.00000000
vt 0.53939581 0.60609806 0.00000000
vt 0.58634841 0.63720572 0.00000000
vt 0.57615626 0.65332198 0.00000000
vt 0.51888919 0.63242257 0.00000000
vt 0.56406403 0.58494639 0.00000000
vt 0.60157144 0.62324440 0.00000000
vt 0.59123206 0.56804562 0.00000000
vt 0.62009442 0.61152804 0.00000000
vt 0.62001145 0.55494034 0.00000000
vt 0.64075863 0.60212767 0.00000000
vt 0.64986122 0.54546022 0.00000000
vt 0.66274357 0.59512818 0.00000000
vt 0.68038213 0.53960466 0.00000000
vt 0.68541682 0.59062856 0.00000000
vt 0.75079989 0.48485589 0.00000000
vt 0.71263969 0.48262537 0.00000000
vt 0.78874123 0.49202716 0.00000000
vt 0.82601941 0.50435555 0.00000000
vt 0.86213279 0.52210462 0.00000000
vt 0.89663100 0.54561549 0.00000000
vt 0.49673355 0.56248653 0.00000000
vt 0.46448290 0.58999556 0.00000000
vt 0.53012526 0.53887355 0.00000000
vt 0.56472611 0.51921707 0.00000000
vt 0.60045338 0.50361049 0.00000000
vt 0.63716328 0.49219298 0.00000000
vt 0.67464948 0.48513561 0.00000000
vt 0.75664318 0.41935444 0.00000000
vt 0.71175194 0.41724789 0.00000000
vt 0.80135310 0.42653263 0.00000000
vt 0.84553444 0.43837202 0.00000000
vt 0.88909233 0.45405430 0.00000000
vt 0.93216681 0.47246194 0.00000000
vt 0.45882666 0.50096411 0.00000000
vt 0.41880444 0.52421063 0.00000000
vt 0.49857724 0.47843701 0.00000000
vt 0.53896010 0.45813549 0.00000000
vt 0.58048189 0.44119382 0.00000000
vt 0.62326431 0.42840505 0.00000000
vt 0.66714013 0.42031062 0.00000000
vt 0.75860476 0.36801064 0.00000000
vt 0.70948350 0.36615610 0.00000000
vt 0.80722892 0.37492180 0.00000000
vt 0.85480022 0.38603407 0.00000000
vt 0.90122235 0.39967418 0.00000000
vt 0.94745195 0.41269183 0.00000000
vt 0.43705419 0.45058268 0.00000000
vt 0.39455828 0.46940422 0.00000000
vt 0.47881377 0.42964017 0.00000000
vt 0.52160692 0.40945816 0.00000000
vt 0.56618333 0.39196062 0.00000000
vt 0.61262178 0.37841964 0.00000000
vt 0.66058445 0.36966264 0.00000000
vt 0.75955307 0.32562172 0.00000000
vt 0.70708597 0.32396400 0.00000000
vt 0.81109118 0.33238780 0.00000000
vt 0.86069059 0.34310013 0.00000000
vt 0.90747201 0.35548460 0.00000000
vt 0.95076025 0.36523986 0.00000000
vt 0.42264768 0.40948582 0.00000000
vt 0.38340399 0.42522240 0.00000000
vt 0.46376681 0.38950109 0.00000000
vt 0.50755966 0.36931890 0.00000000
vt 0.55423117 0.35134071 0.00000000
vt 0.60349941 0.33716828 0.00000000
vt 0.65473664 0.32784975 0.00000000
vt 0.27400929 0.53412628 0.00000000
vt 0.30714470 0.56688946 0.00000000
vt 0.27071089 0.58870870 0.00000000
vt 0.25699466 0.54418272 0.00000000
vt 0.28420097 0.51715654 0.00000000
vt 0.32885370 0.53052175 0.00000000
vt 0.28512159 0.49730158 0.00000000
vt 0.33089852 0.48842293 0.00000000
vt 0.27651736 0.47920531 0.00000000
vt 0.31335253 0.45050302 0.00000000
vt 0.26029983 0.46699178 0.00000000
vt 0.28118882 0.42477563 0.00000000
vt 0.22833449 0.46897265 0.00000000
vt 0.20590228 0.42767900 0.00000000
vt 0.24624312 0.41728961 0.00000000
vt 0.24798319 0.46465498 0.00000000
vt 0.21308431 0.48184001 0.00000000
vt 0.17431484 0.45568836 0.00000000
vt 0.20576862 0.50030977 0.00000000
vt 0.15937106 0.49542817 0.00000000
vt 0.20811081 0.51998836 0.00000000
vt 0.16496234 0.53760588 0.00000000
vt 0.21952611 0.53615284 0.00000000
vt 0.18989852 0.57210934 0.00000000
vt 0.23724747 0.54491860 0.00000000
vt 0.22822362 0.59062386 0.00000000
vt 0.24567345 0.50541270 0.00000000
vt 0.97705173 0.12172627 0.00000000
vt 0.98173857 0.13914618 0.00000000
vt 0.39857835 0.29350546 0.00000000
vt 0.39527085 0.28098068 0.00000000
vt 0.98627675 0.15660347 0.00000000
vt 0.40173998 0.30606642 0.00000000
vt 0.99066639 0.17409602 0.00000000
vt 0.40475613 0.31866121 0.00000000
vt 0.99490744 0.19162177 0.00000000
vt 0.40762737 0.33128768 0.00000000
vt 0.99900001 0.20917858 0.00000000
vt 0.41035450 0.34394386 0.00000000
vt 0.94012833 0.00100000 0.00000000
vt 0.94583827 0.01810341 0.00000000
vt 0.37238958 0.20671766 0.00000000
vt 0.36808100 0.19450572 0.00000000
vt 0.95140499 0.03525755 0.00000000
vt 0.37655935 0.21897934 0.00000000
vt 0.95682710 0.05246069 0.00000000
vt 0.38058850 0.23128957 0.00000000
vt 0.96210372 0.06971103 0.00000000
vt 0.38447547 0.24364673 0.00000000
vt 0.96723384 0.08700669 0.00000000
vt 0.38821888 0.25604904 0.00000000
vt 0.97221661 0.10434575 0.00000000
vt 0.39181757 0.26849443 0.00000000
# 171 texture coords

o wand
g wand
usemtl wire_008061138
s 4
f 1/1/1 2/2/2 3/3/3 
f 1/1/1 3/3/3 4/4/4 
f 1/1/1 4/4/4 5/5/5 
f 1/1/1 5/5/5 6/6/6 
f 1/1/1 6/6/6 7/7/7 
f 1/1/1 7/8/7 8/9/8 
f 1/1/1 8/9/8 9/10/9 
f 1/1/1 9/10/9 10/11/10 
f 1/1/1 10/11/10 11/12/11 
f 1/1/1 11/12/11 12/13/12 
f 1/1/1 12/13/12 13/14/13 
f 1/1/1 13/14/13 2/2/2 
f 14/15/14 15/16/15 16/17/16 
f 16/17/16 17/18/17 14/15/14 
f 18/19/18 19/20/18 15/16/15 
f 15/16/15 14/15/14 18/19/18 
f 20/21/19 21/22/20 19/20/18 
f 19/20/18 18/19/18 20/21/19 
f 22/23/21 23/24/22 21/22/20 
f 21/22/20 20/21/19 22/23/21 
f 24/25/23 25/26/24 23/24/22 
f 23/24/22 22/23/21 24/25/23 
f 26/27/25 27/28/26 25/29/24 
f 25/29/24 24/30/23 26/27/25 
f 28/31/27 29/32/27 27/28/26 
f 27/28/26 26/27/25 28/31/27 
f 30/33/28 31/34/29 29/32/27 
f 29/32/27 28/31/27 30/33/28 
f 32/35/30 33/36/31 31/34/29 
f 31/34/29 30/33/28 32/35/30 
f 34/37/32 35/38/33 33/36/31 
f 33/36/31 32/35/30 34/37/32 
f 36/39/34 37/40/35 35/38/33 
f 35/38/33 34/37/32 36/39/34 
f 17/18/17 16/17/16 37/40/35 
f 37/40/35 36/39/34 17/18/17 
f 38/41/36 39/42/37 40/43/38 
f 40/43/38 41/44/39 38/41/36 
f 42/45/40 43/46/41 39/42/37 
f 39/42/37 38/41/36 42/45/40 
f 44/47/42 45/48/43 43/46/41 
f 43/46/41 42/45/40 44/47/42 
f 46/49/44 47/50/45 45/48/43 
f 45/48/43 44/47/42 46/49/44 
f 48/51/46 49/52/47 47/50/45 
f 47/50/45 46/49/44 48/51/46 
f 50/53/48 51/54/49 49/55/47 
f 49/55/47 48/56/46 50/53/48 
f 52/57/50 53/58/51 51/54/49 
f 51/54/49 50/53/48 52/57/50 
f 54/59/52 55/60/53 53/58/51 
f 53/58/51 52/57/50 54/59/52 
f 56/61/54 57/62/55 55/60/53 
f 55/60/53 54/59/52 56/61/54 
f 58/63/56 59/64/57 57/62/55 
f 57/62/55 56/61/54 58/63/56 
f 60/65/58 61/66/59 59/64/57 
f 59/64/57 58/63/56 60/65/58 
f 41/44/39 40/43/38 61/66/59 
f 61/66/59 60/65/58 41/44/39 
f 62/67/60 38/41/36 41/44/39 
f 41/44/39 63/68/61 62/67/60 
f 64/69/62 42/45/40 38/41/36 
f 38/41/36 62/67/60 64/69/62 
f 65/70/63 44/47/42 42/45/40 
f 42/45/40 64/69/62 65/70/63 
f 66/71/64 46/49/44 44/47/42 
f 44/47/42 65/70/63 66/71/64 
f 67/72/65 48/51/46 46/49/44 
f 46/49/44 66/71/64 67/72/65 
f 68/73/66 50/53/48 48/56/46 
f 48/56/46 67/74/65 68/73/66 
f 69/75/67 52/57/50 50/53/48 
f 50/53/48 68/73/66 69/75/67 
f 70/76/68 54/59/52 52/57/50 
f 52/57/50 69/75/67 70/76/68 
f 71/77/69 56/61/54 54/59/52 
f 54/59/52 70/76/68 71/77/69 
f 72/78/70 58/63/56 56/61/54 
f 56/61/54 71/77/69 72/78/70 
f 73/79/71 60/65/58 58/63/56 
f 58/63/56 72/78/70 73/79/71 
f 63/68/61 41/44/39 60/65/58 
f 60/65/58 73/79/71 63/68/61 
s 8
f 74/80/72 62/67/73 63/68/74 
f 63/68/74 75/81/75 74/80/72 
f 76/82/76 64/69/77 62/67/73 
f 62/67/73 74/80/72 76/82/76 
f 77/83/78 65/70/79 64/69/77 
f 64/69/77 76/82/76 77/83/78 
f 78/84/80 66/71/81 65/70/79 
f 65/70/79 77/83/78 78/84/80 
f 79/85/82 67/72/83 66/71/81 
f 66/71/81 78/84/80 79/85/82 
f 80/86/84 68/73/85 67/74/83 
f 67/74/83 79/87/82 80/86/84 
f 81/88/86 69/75/87 68/73/85 
f 68/73/85 80/86/84 81/88/86 
f 82/89/88 70/76/89 69/75/87 
f 69/75/87 81/88/86 82/89/88 
f 83/90/90 71/77/91 70/76/89 
f 70/76/89 82/89/88 83/90/90 
f 84/91/92 72/78/93 71/77/91 
f 71/77/91 83/90/90 84/91/92 
f 85/92/94 73/79/95 72/78/93 
f 72/78/93 84/91/92 85/92/94 
f 75/81/75 63/68/74 73/79/95 
f 73/79/95 85/92/94 75/81/75 
s 4
f 86/93/96 74/80/97 75/81/98 
f 75/81/98 87/94/99 86/93/96 
f 88/95/100 76/82/101 74/80/97 
f 74/80/97 86/93/96 88/95/100 
f 89/96/102 77/83/103 76/82/101 
f 76/82/101 88/95/100 89/96/102 
f 90/97/104 78/84/105 77/83/103 
f 77/83/103 89/96/102 90/97/104 
f 91/98/106 79/85/107 78/84/105 
f 78/84/105 90/97/104 91/98/106 
f 92/99/108 80/86/109 79/87/107 
f 79/87/107 91/100/106 92/99/108 
f 93/101/110 81/88/111 80/86/109 
f 80/86/109 92/99/108 93/101/110 
f 94/102/112 82/89/113 81/88/111 
f 81/88/111 93/101/110 94/102/112 
f 95/103/114 83/90/115 82/89/113 
f 82/89/113 94/102/112 95/103/114 
f 96/104/116 84/91/117 83/90/115 
f 83/90/115 95/103/114 96/104/116 
f 97/105/118 85/92/119 84/91/117 
f 84/91/117 96/104/116 97/105/118 
f 87/94/99 75/81/98 85/92/119 
f 85/92/119 97/105/118 87/94/99 
f 98/106/120 86/93/96 87/94/99 
f 87/94/99 99/107/121 98/106/120 
f 100/108/122 88/95/100 86/93/96 
f 86/93/96 98/106/120 100/108/122 
f 101/109/123 89/96/102 88/95/100 
f 88/95/100 100/108/122 101/109/123 
f 102/110/124 90/97/104 89/96/102 
f 89/96/102 101/109/123 102/110/124 
f 103/111/125 91/98/106 90/97/104 
f 90/97/104 102/110/124 103/111/125 
f 104/112/126 92/99/108 91/100/106 
f 91/100/106 103/113/125 104/112/126 
f 105/114/127 93/101/110 92/99/108 
f 92/99/108 104/112/126 105/114/127 
f 106/115/128 94/102/112 93/101/110 
f 93/101/110 105/114/127 106/115/128 
f 107/116/129 95/103/114 94/102/112 
f 94/102/112 106/115/128 107/116/129 
f 108/117/130 96/104/116 95/103/114 
f 95/103/114 107/116/129 108/117/130 
f 109/118/131 97/105/118 96/104/116 
f 96/104/116 108/117/130 109/118/131 
f 99/107/121 87/94/99 97/105/118 
f 97/105/118 109/118/131 99/107/121 
f 110/119/132 98/120/120 99/121/121 
f 99/121/121 111/122/133 110/119/132 
f 112/123/134 100/124/122 98/120/120 
f 98/120/120 110/119/132 112/123/134 
f 113/125/135 101/126/123 100/124/122 
f 100/124/122 112/123/134 113/125/135 
f 114/127/136 102/128/124 101/126/123 
f 101/126/123 113/125/135 114/127/136 
f 115/129/137 103/130/125 102/128/124 
f 102/128/124 114/127/136 115/129/137 
f 116/131/138 104/132/126 103/133/125 
f 103/133/125 115/134/137 116/131/138 
f 117/135/139 105/136/127 104/132/126 
f 104/132/126 116/131/138 117/135/139 
f 118/137/140 106/138/128 105/136/127 
f 105/136/127 117/135/139 118/137/140 
f 119/139/141 107/140/129 106/138/128 
f 106/138/128 118/137/140 119/139/141 
f 120/141/142 108/142/130 107/140/129 
f 107/140/129 119/139/141 120/141/142 
f 121/143/143 109/144/131 108/142/130 
f 108/142/130 120/141/142 121/143/143 
f 111/122/133 99/121/121 109/144/131 
f 109/144/131 121/143/143 111/122/133 
f 111/122/133 122/145/144 110/119/132 
f 110/119/132 122/145/144 112/123/134 
f 112/123/134 122/145/144 113/125/135 
f 113/125/135 122/145/144 114/127/136 
f 114/127/136 122/145/144 115/129/137 
f 115/134/137 122/145/144 116/131/138 
f 116/131/138 122/145/144 117/135/139 
f 117/135/139 122/145/144 118/137/140 
f 118/137/140 122/145/144 119/139/141 
f 119/139/141 122/145/144 120/141/142 
f 120/141/142 122/145/144 121/143/143 
f 121/143/143 122/145/144 111/122/133 
s 1
f 40/146/145 39/147/146 123/148/147 
f 123/148/147 124/149/148 40/146/145 
f 39/147/146 43/150/149 125/151/150 
f 125/151/150 123/148/147 39/147/146 
f 43/150/149 45/152/151 126/153/152 
f 126/153/152 125/151/150 43/150/149 
f 45/152/151 47/154/153 127/155/154 
f 127/155/154 126/153/152 45/152/151 
f 47/154/153 49/156/155 128/157/156 
f 128/157/156 127/155/154 47/154/153 
f 49/158/155 51/159/157 129/160/158 
f 129/160/158 128/161/156 49/158/155 
f 51/159/157 53/162/159 130/163/160 
f 130/163/160 129/160/158 51/159/157 
f 53/162/159 55/164/161 131/165/162 
f 131/165/162 130/163/160 53/162/159 
f 55/164/161 57/166/163 132/167/164 
f 132/167/164 131/165/162 55/164/161 
f 57/166/163 59/168/165 133/169/166 
f 133/169/166 132/167/164 57/166/163 
f 59/168/165 61/170/167 134/171/168 
f 134/171/168 133/169/166 59/168/165 
f 61/170/167 40/146/145 124/149/148 
f 124/149/148 134/171/168 61/170/167 
f 124/149/148 123/148/147 14/15/169 
f 14/15/169 17/18/170 124/149/148 
f 123/148/147 125/151/150 18/19/171 
f 18/19/171 14/15/169 123/148/147 
f 125/151/150 126/153/152 20/21/172 
f 20/21/172 18/19/171 125/151/150 
f 126/153/152 127/155/154 22/23/173 
f 22/23/173 20/21/172 126/153/152 
f 127/155/154 128/157/156 24/25/174 
f 24/25/174 22/23/173 127/155/154 
f 128/161/156 129/160/158 26/27/175 
f 26/27/175 24/30/174 128/161/156 
f 129/160/158 130/163/160 28/31/176 
f 28/31/176 26/27/175 129/160/158 
f 130/163/160 131/165/162 30/33/177 
f 30/33/177 28/31/176 130/163/160 
f 131/165/162 132/167/164 32/35/178 
f 32/35/178 30/33/177 131/165/162 
f 132/167/164 133/169/166 34/37/179 
f 34/37/179 32/35/178 132/167/164 
f 133/169/166 134/171/168 36/39/180 
f 36/39/180 34/37/179 133/169/166 
f 134/171/168 124/149/148 17/18/170 
f 17/18/170 36/39/180 134/171/168 
f 16/17/181 15/16/182 3/3/183 
f 3/3/183 2/2/184 16/17/181 
f 15/16/182 19/20/185 4/4/186 
f 4/4/186 3/3/183 15/16/182 
f 19/20/185 21/22/187 5/5/188 
f 5/5/188 4/4/186 19/20/185 
f 21/22/187 23/24/189 6/6/190 
f 6/6/190 5/5/188 21/22/187 
f 23/24/189 25/26/191 7/7/192 
f 7/7/192 6/6/190 23/24/189 
f 25/29/191 27/28/193 8/9/194 
f 8/9/194 7/8/192 25/29/191 
f 27/28/193 29/32/195 9/10/195 
f 9/10/195 8/9/194 27/28/193 
f 29/32/195 31/34/196 10/11/197 
f 10/11/197 9/10/195 29/32/195 
f 31/34/196 33/36/198 11/12/199 
f 11/12/199 10/11/197 31/34/196 
f 33/36/198 35/38/200 12/13/201 
f 12/13/201 11/12/199 33/36/198 
f 35/38/200 37/40/202 13/14/203 
f 13/14/203 12/13/201 35/38/200 
f 37/40/202 16/17/181 2/2/184 
f 2/2/184 13/14/203 37/40/202 
# 264 faces

